<svg width="120" height="45" viewBox="0 0 120 45" fill="none" xmlns="http://www.w3.org/2000/svg">
<path fill-rule="evenodd" clip-rule="evenodd" d="M15.3526 18.9397L0 26.7411L10.2354 1.39536H15.2471L24.1265 26.3763L18.4919 26.3116L12.1849 10.4087L8.98835 18.8807L15.3526 18.9397Z" fill="#00213A"/>
<path d="M54.9041 14.0962C54.9041 18.0327 53.7279 21.0886 51.3829 23.2605C49.0419 25.4364 45.7603 26.5212 41.5469 26.5212H36.1852V1.60776H41.1588C45.59 1.60776 48.9869 2.67612 51.3563 4.80718C53.7205 6.94732 54.9041 10.0429 54.9041 14.0962ZM49.8357 14.0588C49.8357 11.4954 49.1702 9.49029 47.8374 8.05086C46.5029 6.6137 44.6374 5.89484 42.2397 5.89484H41.0448V22.2273H42.2397C44.6232 22.2273 46.4865 21.5215 47.8227 20.0934C49.1639 18.6676 49.8357 16.6568 49.8357 14.0588Z" fill="#00213A"/>
<path d="M73.6027 1.39536H68.3459V26.2953H73.6027V1.39536Z" fill="#00213A"/>
<path d="M119.745 1.65903H114.489V26.2996H119.745V1.65903Z" fill="#00213A"/>
<path d="M101.056 5.72329H96.3545V26.3525H91.4977V5.72329H86.7993V1.43564H101.056V5.72329Z" fill="#00213A"/>
<path d="M8.51061 41.522C8.58948 41.522 8.66097 41.5544 8.72508 41.6179L9.28848 42.2335C8.85388 42.7374 8.32622 43.13 7.70664 43.412C7.0865 43.6934 6.33927 43.8341 5.46495 43.8341C4.69899 43.8341 4.00509 43.7019 3.38212 43.4375C2.75971 43.1737 2.22864 42.8026 1.78893 42.326C1.34921 41.8494 1.00822 41.2775 0.766519 40.6108C0.52425 39.9436 0.402832 39.21 0.402832 38.4094C0.402832 37.6094 0.532761 36.8758 0.792051 36.2086C1.05191 35.5414 1.41616 34.9689 1.88538 34.4894C2.3546 34.01 2.91687 33.6384 3.57105 33.374C4.2258 33.1096 4.94864 32.9774 5.73899 32.9774C6.51913 32.9774 7.1926 33.0988 7.75827 33.3411C8.32395 33.5828 8.82664 33.9113 9.26636 34.326L8.79941 34.9853C8.7648 35.0353 8.72508 35.0761 8.68083 35.1079C8.63657 35.1402 8.57189 35.1567 8.48792 35.1567C8.42381 35.1567 8.35629 35.1328 8.2848 35.0858C8.21274 35.0392 8.12764 34.9808 8.02891 34.9116C7.93019 34.8429 7.81388 34.7686 7.68054 34.6892C7.54721 34.6103 7.38891 34.536 7.20622 34.4667C7.02352 34.3981 6.81076 34.3402 6.56906 34.2926C6.32679 34.246 6.04764 34.2222 5.73161 34.2222C5.1631 34.2222 4.64339 34.3204 4.1719 34.515C3.69985 34.7107 3.29304 34.9882 2.95261 35.349C2.61162 35.7099 2.34609 36.149 2.15545 36.6682C1.96538 37.1867 1.87063 37.7672 1.87063 38.4094C1.87063 39.0716 1.96538 39.6622 2.15545 40.1808C2.34609 40.6994 2.60538 41.1379 2.93389 41.4959C3.2624 41.854 3.65162 42.1274 4.10155 42.3147C4.55091 42.503 5.03488 42.5967 5.55346 42.5967C5.87005 42.5967 6.15374 42.5779 6.40622 42.5411C6.65757 42.5042 6.89133 42.4457 7.10579 42.3669C7.3214 42.288 7.52111 42.1876 7.70664 42.0667C7.89161 41.9459 8.07827 41.8012 8.26608 41.6333C8.34948 41.5589 8.43118 41.522 8.51061 41.522Z" fill="#595959"/>
<path d="M22.6047 38.4094C22.6047 37.7575 22.5156 37.172 22.338 36.6528C22.1599 36.1343 21.908 35.6962 21.5817 35.3377C21.256 34.9797 20.8606 34.7045 20.3959 34.5116C19.9318 34.3187 19.4132 34.2222 18.8402 34.2222C18.2716 34.2222 17.7559 34.3187 17.2912 34.5116C16.8265 34.7045 16.4305 34.9797 16.102 35.3377C15.7729 35.6962 15.5199 36.1343 15.3423 36.6528C15.1647 37.172 15.0751 37.7575 15.0751 38.4094C15.0751 39.0613 15.1647 39.6457 15.3423 40.162C15.5199 40.6784 15.7729 41.1158 16.102 41.4738C16.4305 41.8318 16.8265 42.1064 17.2912 42.2965C17.7559 42.4866 18.2716 42.5819 18.8402 42.5819C19.4132 42.5819 19.9318 42.4866 20.3959 42.2965C20.8606 42.1064 21.256 41.8318 21.5817 41.4738C21.908 41.1158 22.1599 40.6784 22.338 40.162C22.5156 39.6457 22.6047 39.0613 22.6047 38.4094ZM24.0793 38.4094C24.0793 39.2049 23.9533 39.9351 23.7014 40.5995C23.4495 41.2639 23.0938 41.8358 22.6342 42.3147C22.1746 42.7941 21.6231 43.1657 20.978 43.4301C20.3335 43.6945 19.6209 43.8267 18.8402 43.8267C18.0595 43.8267 17.348 43.6945 16.7057 43.4301C16.0634 43.1657 15.5125 42.7941 15.0529 42.3147C14.5939 41.8358 14.2382 41.2639 13.9863 40.5995C13.7344 39.9351 13.6084 39.2049 13.6084 38.4094C13.6084 37.614 13.7344 36.8843 13.9863 36.2199C14.2382 35.5555 14.5939 34.9819 15.0529 34.5002C15.5125 34.0185 16.0634 33.6446 16.7057 33.3774C17.348 33.1107 18.0595 32.9774 18.8402 32.9774C19.6209 32.9774 20.3335 33.1107 20.978 33.3774C21.6231 33.6446 22.1746 34.0185 22.6342 34.5002C23.0938 34.9819 23.4495 35.5555 23.7014 36.2199C23.9533 36.8843 24.0793 37.614 24.0793 38.4094Z" fill="#595959"/>
<path d="M30.1072 32.6051C30.169 32.6374 30.2394 32.7026 30.3183 32.8014L36.4692 40.8047C36.4544 40.6765 36.4442 40.5517 36.4397 40.4303C36.4346 40.3094 36.4317 40.1925 36.4317 40.0785V32.5568H37.6919V43.1764H36.9656C36.8521 43.1764 36.7568 43.1565 36.6802 43.1168C36.6036 43.0776 36.5282 43.0107 36.4544 42.9165L30.3109 34.9211C30.3205 35.0442 30.3279 35.165 30.333 35.2842C30.3381 35.4028 30.3409 35.5111 30.3409 35.6099V43.1764H29.0808V32.5568H29.8218C29.9506 32.5568 30.0453 32.5727 30.1072 32.6051Z" fill="#595959"/>
<path d="M48.7648 34.2184C48.7206 34.2921 48.6735 34.3483 48.6241 34.3846C48.5747 34.422 48.5106 34.4408 48.4318 34.4408C48.3478 34.4408 48.2502 34.3988 48.1384 34.3148C48.0278 34.2303 47.8871 34.1378 47.7163 34.0368C47.5461 33.9352 47.3407 33.8428 47.1013 33.7588C46.8618 33.6748 46.5713 33.6328 46.2304 33.6328C45.9092 33.6328 45.625 33.6759 45.3782 33.7622C45.1313 33.849 44.9248 33.9664 44.7591 34.1145C44.5935 34.2626 44.4692 34.4368 44.3852 34.6371C44.3013 34.8368 44.2593 35.0535 44.2593 35.2856C44.2593 35.5818 44.3325 35.8274 44.4777 36.0226C44.6235 36.2178 44.8165 36.3846 45.0559 36.523C45.2959 36.6615 45.5671 36.7812 45.8712 36.8822C46.1753 36.9837 46.4862 37.0887 46.8045 37.1971C47.1234 37.306 47.4349 37.4286 47.7384 37.5642C48.0425 37.6998 48.3143 37.8717 48.5537 38.0793C48.7932 38.2864 48.9861 38.5412 49.1313 38.8425C49.2772 39.1437 49.3503 39.5142 49.3503 39.9539C49.3503 40.4186 49.2715 40.8544 49.1132 41.2623C48.9549 41.6697 48.7245 42.0243 48.4204 42.3256C48.1163 42.6268 47.7435 42.864 47.301 43.0365C46.859 43.2101 46.3563 43.2963 45.7935 43.2963C45.1064 43.2963 44.4806 43.1715 43.9149 42.9219C43.3492 42.6722 42.8658 42.3352 42.4658 41.9108L42.8811 41.2283C42.9203 41.1744 42.9685 41.1284 43.0253 41.0915C43.082 41.0547 43.145 41.0359 43.2142 41.0359C43.318 41.0359 43.4366 41.0915 43.5699 41.2027C43.7038 41.3139 43.8706 41.4365 44.0704 41.5698C44.2706 41.7026 44.5123 41.8251 44.7966 41.9364C45.0803 42.0476 45.4275 42.1032 45.8377 42.1032C46.1787 42.1032 46.4823 42.0561 46.7495 41.9625C47.0162 41.8683 47.242 41.7361 47.4275 41.5659C47.6125 41.3956 47.7549 41.192 47.8536 40.9548C47.9523 40.7176 48.0017 40.4532 48.0017 40.1616C48.0017 39.8405 47.9285 39.5772 47.7833 39.3718C47.6374 39.1676 47.4457 38.9956 47.2085 38.8572C46.9719 38.7193 46.7013 38.6019 46.3972 38.5054C46.0936 38.409 45.7821 38.3103 45.4638 38.2087C45.145 38.1077 44.8335 37.9903 44.5299 37.8569C44.2258 37.7236 43.9552 37.5505 43.718 37.3383C43.4814 37.1262 43.2896 36.8601 43.1438 36.5418C42.998 36.2229 42.9254 35.8286 42.9254 35.3593C42.9254 34.9843 42.998 34.6206 43.1438 34.27C43.2896 33.9193 43.5007 33.6079 43.7776 33.3361C44.0545 33.0649 44.3966 32.847 44.804 32.6842C45.2113 32.5213 45.6794 32.4396 46.2082 32.4396C46.8011 32.4396 47.3424 32.5333 47.8309 32.7211C48.32 32.9089 48.7478 33.1806 49.1132 33.5364L48.7648 34.2184Z" fill="#595959"/>
<path d="M58.3465 42.5726C58.7856 42.5726 59.1788 42.4988 59.5249 42.3502C59.8704 42.2021 60.1632 41.9944 60.4032 41.7277C60.6421 41.4611 60.8253 41.1422 60.9513 40.7723C61.0772 40.4012 61.1402 39.9938 61.1402 39.549V33.0946H62.57V39.549C62.57 40.1618 62.4724 40.7297 62.2778 41.2534C62.0826 41.7777 61.8035 42.2304 61.4404 42.6134C61.0772 42.9964 60.6336 43.2965 60.1099 43.5138C59.5868 43.7311 58.9984 43.8401 58.3465 43.8401C57.694 43.8401 57.1062 43.7311 56.5825 43.5138C56.0588 43.2965 55.6146 42.9964 55.2486 42.6134C54.8832 42.2304 54.6029 41.7777 54.4078 41.2534C54.2126 40.7297 54.115 40.1618 54.115 39.549V33.0946H55.5453V39.5416C55.5453 39.9859 55.6083 40.3938 55.7343 40.7643C55.8602 41.1348 56.0429 41.4537 56.2824 41.7204C56.5224 41.987 56.8163 42.1958 57.1646 42.3467C57.513 42.4971 57.9068 42.5726 58.3465 42.5726Z" fill="#595959"/>
<path d="M69.5163 42.5062H74.1109V43.7141H68.0786V33.0946H69.5163V42.5062Z" fill="#595959"/>
<path d="M84.6913 33.0946V34.3025H81.2603V43.7141H79.8226V34.3025H76.377V33.0946H84.6913Z" fill="#595959"/>
<path d="M89.5107 33.0909H90.9484V43.7106H89.5107V33.0909Z" fill="#595959"/>
<path d="M97.8562 33.1428C97.9181 33.1751 97.9884 33.2404 98.0678 33.3391L104.218 41.3425C104.203 41.2143 104.194 41.0894 104.189 40.968C104.184 40.8472 104.181 40.7303 104.181 40.6163V33.0946H105.441V43.7141H104.715C104.601 43.7141 104.506 43.6943 104.429 43.6545C104.353 43.6154 104.277 43.5484 104.203 43.4543L98.0599 35.4588C98.0701 35.5819 98.0775 35.7028 98.082 35.8219C98.0871 35.9405 98.0894 36.0489 98.0894 36.1476V43.7141H96.8298V33.0946H97.5714C97.6991 33.0946 97.7949 33.1105 97.8562 33.1428Z" fill="#595959"/>
<path d="M115.807 42.6704C116.093 42.6704 116.357 42.6568 116.596 42.6296C116.836 42.6023 117.062 42.562 117.274 42.5076C117.486 42.4531 117.687 42.3879 117.875 42.3107C118.063 42.2341 118.25 42.1467 118.438 42.048V39.7064H116.792C116.699 39.7064 116.623 39.6792 116.567 39.6247C116.51 39.5703 116.482 39.5039 116.482 39.4245V38.6091H119.742V42.6852C119.476 42.8781 119.198 43.046 118.909 43.1896C118.619 43.3325 118.311 43.4523 117.982 43.5481C117.653 43.6452 117.301 43.7167 116.926 43.7637C116.551 43.8103 116.143 43.8341 115.703 43.8341C114.932 43.8341 114.226 43.7019 113.584 43.4375C112.942 43.1731 112.389 42.8026 111.924 42.326C111.459 41.8494 111.098 41.2769 110.838 40.6103C110.579 39.943 110.449 39.2094 110.449 38.4094C110.449 37.5992 110.576 36.8605 110.83 36.1933C111.085 35.5266 111.448 34.9547 111.92 34.4781C112.392 34.0015 112.963 33.6316 113.632 33.37C114.301 33.1079 115.051 32.9774 115.881 32.9774C116.302 32.9774 116.692 33.008 117.052 33.0699C117.413 33.1317 117.747 33.2208 118.057 33.3365C118.365 33.4528 118.651 33.5936 118.912 33.7592C119.174 33.9249 119.419 34.1116 119.646 34.3187L119.238 34.9706C119.154 35.1045 119.046 35.1709 118.912 35.1709C118.833 35.1709 118.747 35.1436 118.653 35.0892C118.529 35.0205 118.391 34.9365 118.238 34.8372C118.084 34.7385 117.898 34.6438 117.678 34.5519C117.459 34.4605 117.199 34.3828 116.9 34.3187C116.601 34.2545 116.247 34.2222 115.836 34.2222C115.239 34.2222 114.698 34.3198 114.214 34.515C113.73 34.7101 113.317 34.9893 112.976 35.3524C112.635 35.7155 112.374 36.1553 112.19 36.6716C112.008 37.1879 111.916 37.7672 111.916 38.4094C111.916 39.0812 112.012 39.6803 112.202 40.2063C112.392 40.7323 112.66 41.1788 113.006 41.5442C113.352 41.9096 113.762 42.1887 114.236 42.3816C114.71 42.574 115.234 42.6704 115.807 42.6704Z" fill="#595959"/>
</svg>
